<svg width="26" height="26" viewBox="0 0 26 26" fill="none" xmlns="http://www.w3.org/2000/svg">
<path d="M25.1875 13C25.1875 6.26903 19.731 0.8125 13 0.8125C6.26903 0.8125 0.8125 6.26903 0.8125 13C0.8125 19.731 6.26903 25.1875 13 25.1875V26C5.8203 26 0 20.1797 0 13C0 5.8203 5.8203 0 13 0C20.1797 0 26 5.8203 26 13C26 20.1797 20.1797 26 13 26V25.1875C19.731 25.1875 25.1875 19.731 25.1875 13Z" fill="#E6C97D"/>
<path d="M4.33333 7.60192C4.47808 7.60192 7.80724 7.60192 7.97008 7.58337C7.53584 7.78737 7.3549 8.36226 7.6444 9.19678L10.4669 17.4493L13.8323 7.60192L17.1976 17.4493L20.0202 9.19678C20.3097 8.36226 20.1106 7.78737 19.6945 7.60192C19.8392 7.60192 21.5038 7.60192 21.6667 7.60192C21.3048 7.75028 20.762 8.36226 20.4725 9.19678L16.6006 20.5834H16.1301L13 11.3851L9.85177 20.5834H9.39944L5.50939 9.19678C5.2199 8.36226 4.6771 7.75028 4.33333 7.60192Z" fill="#E6C97D"/>
</svg>
