<svg width="30" height="30" viewBox="0 0 30 30" fill="none" xmlns="http://www.w3.org/2000/svg">
<path d="M18.4181 5.11035C18.723 5.11043 18.9738 5.36211 18.9738 5.66699C18.9738 7.94548 20.8296 9.79576 23.1086 9.7959C23.4135 9.7959 23.6652 10.0476 23.6652 10.3525V13.375C23.6651 13.6799 23.4134 13.9316 23.1086 13.9316C21.9944 13.9316 20.913 13.7104 19.8927 13.2803L19.8918 13.2793C19.5772 13.1438 19.2697 12.9899 18.9738 12.8193V18.5859L18.966 18.9004C18.8844 20.4629 18.2339 21.9175 17.1212 23.0303C16.1563 23.9952 14.9403 24.6117 13.6027 24.8115H13.6017C13.2912 24.8559 12.9699 24.8779 12.6544 24.8779C10.9682 24.8779 9.38088 24.2234 8.18277 23.0254C6.99025 21.8329 6.32938 20.2455 6.32925 18.5537C6.32925 16.8671 6.99052 15.2799 8.18277 14.082V14.0811C9.37534 12.8886 10.9626 12.2286 12.6544 12.2285C12.97 12.2285 13.2924 12.2506 13.6046 12.3008C13.8753 12.3447 14.0773 12.5732 14.0773 12.8496V15.9316C14.0773 16.1104 13.9891 16.2794 13.8488 16.3828L13.8459 16.3848C13.7002 16.4867 13.5144 16.518 13.3419 16.458V16.457C13.1207 16.3818 12.888 16.3467 12.6544 16.3467C11.4428 16.3468 10.4543 17.3362 10.4543 18.5479C10.4543 19.7595 11.4428 20.7489 12.6544 20.749C12.8884 20.749 13.1214 20.7132 13.3429 20.6377L13.3439 20.6367C14.2413 20.3375 14.8444 19.5069 14.8498 18.5586V5.66699C14.8498 5.36207 15.1015 5.11035 15.4064 5.11035H18.4181ZM15.963 18.5752L15.9513 18.8408C15.8412 20.1539 14.9591 21.2868 13.6935 21.707C13.3535 21.8204 13.007 21.8769 12.6496 21.877C10.8227 21.877 9.3363 20.3913 9.33609 18.5645C9.33609 16.7374 10.8226 15.251 12.6496 15.251C12.7548 15.251 12.8578 15.2563 12.9601 15.2656V13.3623C12.8603 13.3557 12.7567 13.3516 12.6544 13.3516C11.2643 13.3516 9.95389 13.8936 8.97476 14.8779V14.8789C7.98993 15.8638 7.44744 17.1686 7.44742 18.5586C7.44742 19.9487 7.98955 21.2591 8.97379 22.2383L8.97476 22.2393C9.95956 23.2239 11.2646 23.7656 12.6544 23.7656C12.917 23.7656 13.1806 23.745 13.4396 23.708L13.6447 23.6729C14.664 23.4795 15.5942 22.9849 16.34 22.2393C17.3195 21.2597 17.862 19.9594 17.8673 18.5801V11.7773C17.8673 11.5912 17.9574 11.4175 18.1115 11.3164L18.1818 11.2783C18.3735 11.1843 18.5959 11.2069 18.7648 11.3389H18.7638C19.2467 11.7103 19.7719 12.0181 20.3341 12.2568H20.3351C21.0439 12.5591 21.7906 12.7342 22.5578 12.7949V10.8936C20.1087 10.6358 18.1601 8.68296 17.8976 6.23926H15.963V18.5752Z" fill="black" stroke="black" stroke-width="0.3"/>
<path d="M1.52493 3.06934C1.84272 3.06195 2.09616 3.31407 2.09622 3.625V26.8359C2.09644 27.4246 2.57589 27.9043 3.16458 27.9043H26.8355C27.4241 27.9043 27.9036 27.4246 27.9038 26.8359V21.002C27.9038 20.697 28.1556 20.4453 28.4605 20.4453C28.7654 20.4453 29.0171 20.697 29.0171 21.002V26.8359C29.0169 28.0398 28.0394 29.0166 26.8355 29.0166H3.16458C1.96062 29.0166 0.98316 28.0398 0.982941 26.8359V3.625C0.983003 3.32074 1.22786 3.0768 1.52493 3.06934Z" fill="black" stroke="black" stroke-width="0.3"/>
<path d="M26.8355 0.98291C28.0395 0.982945 29.0171 1.96048 29.0171 3.16455V18.3208C29.0169 18.6255 28.7652 18.8764 28.4605 18.8765C28.1557 18.8765 27.9041 18.6255 27.9038 18.3208V3.16455C27.9038 2.57575 27.4243 2.09623 26.8355 2.09619H3.16458C2.57576 2.09619 2.09622 2.57573 2.09622 3.16455V3.64111C2.09622 3.94604 1.84451 4.19775 1.53958 4.19775C1.23466 4.19775 0.982941 3.94604 0.982941 3.64111V3.16455C0.982941 1.96046 1.96049 0.98291 3.16458 0.98291H26.8355Z" fill="black" stroke="black" stroke-width="0.3"/>
</svg>
